<svg xmlns="http://www.w3.org/2000/svg" xmlns:xlink="http://www.w3.org/1999/xlink" width="1024" zoomAndPan="magnify" viewBox="0 0 768 767.999994" height="1024" preserveAspectRatio="xMidYMid meet" version="1.0"><defs><g/><clipPath id="6180322abf"><path d="M 94.191406 357.472656 L 192.441406 357.472656 L 192.441406 444.472656 L 94.191406 444.472656 Z M 94.191406 357.472656 " clip-rule="nonzero"/></clipPath><clipPath id="eab15c1ce5"><path d="M 191.425781 356.226562 L 293.425781 356.226562 L 293.425781 445.476562 L 191.425781 445.476562 Z M 191.425781 356.226562 " clip-rule="nonzero"/></clipPath><clipPath id="70bbc952cf"><path d="M 45.046875 5 L 292 5 L 292 128.765625 L 45.046875 128.765625 Z M 45.046875 5 " clip-rule="nonzero"/></clipPath><clipPath id="e4145e7de2"><path d="M 103 247 L 147 247 L 147 290.90625 L 103 290.90625 Z M 103 247 " clip-rule="nonzero"/></clipPath><clipPath id="4df0412ccc"><path d="M 193 247 L 237 247 L 237 290.90625 L 193 290.90625 Z M 193 247 " clip-rule="nonzero"/></clipPath><clipPath id="ca1dc87cc1"><path d="M 6.183594 73.457031 L 271.125 73.457031 L 271.125 242 L 6.183594 242 Z M 6.183594 73.457031 " clip-rule="nonzero"/></clipPath><clipPath id="a451b6c577"><path d="M 45.046875 3 L 292 3 L 292 126.476562 L 45.046875 126.476562 Z M 45.046875 3 " clip-rule="nonzero"/></clipPath><clipPath id="8564066256"><path d="M 103 245 L 147 245 L 147 288.621094 L 103 288.621094 Z M 103 245 " clip-rule="nonzero"/></clipPath><clipPath id="9f350830ff"><path d="M 193 245 L 237 245 L 237 288.621094 L 193 288.621094 Z M 193 245 " clip-rule="nonzero"/></clipPath><clipPath id="81c149d322"><path d="M 6.183594 71.171875 L 271.125 71.171875 L 271.125 239.816406 L 6.183594 239.816406 Z M 6.183594 71.171875 " clip-rule="nonzero"/></clipPath><clipPath id="55f90f7a27"><path d="M 49 0.238281 L 295.761719 0.238281 L 295.761719 124.191406 L 49 124.191406 Z M 49 0.238281 " clip-rule="nonzero"/></clipPath><clipPath id="6dfaf65dc6"><path d="M 106.300781 243 L 150 243 L 150 286.335938 L 106.300781 286.335938 Z M 106.300781 243 " clip-rule="nonzero"/></clipPath><clipPath id="1ba06a4d74"><path d="M 197 242 L 241 242 L 241 286.335938 L 197 286.335938 Z M 197 242 " clip-rule="nonzero"/></clipPath><clipPath id="a1cadb65d8"><path d="M 9.933594 68.886719 L 274.875 68.886719 L 274.875 237.53125 L 9.933594 237.53125 Z M 9.933594 68.886719 " clip-rule="nonzero"/></clipPath><clipPath id="d6ef790823"><path d="M 51.046875 5 L 297.640625 5 L 297.640625 128.765625 L 51.046875 128.765625 Z M 51.046875 5 " clip-rule="nonzero"/></clipPath><clipPath id="a76aa6e504"><path d="M 109 247 L 153 247 L 153 290.90625 L 109 290.90625 Z M 109 247 " clip-rule="nonzero"/></clipPath><clipPath id="134053df1e"><path d="M 199 247 L 243 247 L 243 290.90625 L 199 290.90625 Z M 199 247 " clip-rule="nonzero"/></clipPath><clipPath id="091a7b0962"><path d="M 12.183594 73.457031 L 277.125 73.457031 L 277.125 242 L 12.183594 242 Z M 12.183594 73.457031 " clip-rule="nonzero"/></clipPath><clipPath id="e6f6339dbe"><rect x="0" width="298" y="0" height="297"/></clipPath><clipPath id="d243796e5a"><path d="M 171 389.671875 L 212 389.671875 L 212 399 L 171 399 Z M 171 389.671875 " clip-rule="nonzero"/></clipPath><clipPath id="a1c374e23c"><path d="M 171 403 L 212 403 L 212 412.171875 L 171 412.171875 Z M 171 403 " clip-rule="nonzero"/></clipPath><clipPath id="b0526ed27d"><rect x="0" width="374" y="0" height="143"/></clipPath><clipPath id="a5a1ee8f9e"><rect x="0" width="394" y="0" height="172"/></clipPath></defs><rect x="-76.8" width="921.6" fill="none" y="-76.799999" height="921.599993" fill-opacity="1"/><rect x="-76.8" width="921.6" fill="none" y="-76.799999" height="921.599993" fill-opacity="1"/><g clip-path="url(#6180322abf)"><path fill="#1858b1" d="M 120.71875 441.007812 C 120.871094 441.464844 121.089844 441.882812 121.378906 442.269531 C 121.664062 442.65625 122 442.988281 122.390625 443.269531 C 122.78125 443.546875 123.203125 443.761719 123.660156 443.90625 C 124.117188 444.054688 124.585938 444.128906 125.066406 444.128906 L 210.132812 444.128906 C 210.613281 444.128906 211.082031 444.054688 211.539062 443.90625 C 211.996094 443.761719 212.421875 443.546875 212.8125 443.269531 C 213.199219 442.988281 213.539062 442.65625 213.824219 442.269531 C 214.109375 441.882812 214.328125 441.464844 214.484375 441.007812 L 240.773438 363.015625 C 240.917969 362.585938 240.996094 362.140625 241.011719 361.6875 C 241.027344 361.230469 240.972656 360.78125 240.851562 360.34375 C 240.734375 359.902344 240.554688 359.492188 240.3125 359.105469 C 240.070312 358.71875 239.777344 358.378906 239.433594 358.078125 L 170.613281 298.4375 C 170.199219 298.078125 169.730469 297.800781 169.214844 297.605469 C 168.695312 297.414062 168.164062 297.316406 167.609375 297.316406 C 167.058594 297.316406 166.523438 297.414062 166.007812 297.605469 C 165.488281 297.800781 165.023438 298.078125 164.605469 298.4375 L 95.789062 358.078125 C 95.445312 358.378906 95.152344 358.71875 94.910156 359.105469 C 94.667969 359.492188 94.484375 359.902344 94.367188 360.34375 C 94.246094 360.78125 94.195312 361.230469 94.207031 361.6875 C 94.222656 362.140625 94.304688 362.585938 94.449219 363.015625 Z M 120.71875 441.007812 " fill-opacity="1" fill-rule="nonzero"/></g><g clip-path="url(#eab15c1ce5)"><path fill="#ffde59" d="M 167.445312 442.011719 C 167.609375 442.5 167.84375 442.949219 168.148438 443.359375 C 168.457031 443.773438 168.816406 444.128906 169.234375 444.429688 C 169.648438 444.726562 170.101562 444.957031 170.589844 445.113281 C 171.082031 445.269531 171.582031 445.347656 172.09375 445.347656 L 263.011719 445.347656 C 263.523438 445.347656 264.027344 445.269531 264.515625 445.113281 C 265.003906 444.957031 265.457031 444.726562 265.871094 444.429688 C 266.289062 444.128906 266.648438 443.773438 266.957031 443.359375 C 267.261719 442.949219 267.496094 442.5 267.660156 442.011719 L 295.753906 358.65625 C 295.910156 358.195312 295.996094 357.722656 296.011719 357.234375 C 296.027344 356.75 295.972656 356.269531 295.84375 355.800781 C 295.714844 355.332031 295.523438 354.890625 295.265625 354.476562 C 295.003906 354.066406 294.691406 353.699219 294.324219 353.378906 L 220.773438 289.636719 C 220.328125 289.25 219.828125 288.953125 219.277344 288.75 C 218.722656 288.542969 218.152344 288.4375 217.5625 288.4375 C 216.972656 288.4375 216.402344 288.542969 215.847656 288.75 C 215.296875 288.953125 214.796875 289.25 214.351562 289.636719 L 140.800781 353.378906 C 140.433594 353.699219 140.121094 354.066406 139.863281 354.476562 C 139.601562 354.890625 139.410156 355.332031 139.28125 355.800781 C 139.15625 356.269531 139.097656 356.75 139.113281 357.234375 C 139.128906 357.722656 139.214844 358.195312 139.371094 358.65625 Z M 167.445312 442.011719 " fill-opacity="1" fill-rule="nonzero"/></g><g transform="matrix(1, 0, 0, 1, 23, 240)"><g clip-path="url(#e6f6339dbe)"><g clip-path="url(#70bbc952cf)"><path fill="#e0281e" d="M 262.824219 110.230469 L 262.824219 97.914062 C 262.824219 95.648438 260.988281 93.8125 258.71875 93.8125 C 256.453125 93.8125 254.613281 95.648438 254.613281 97.914062 L 254.613281 110.230469 L 238.195312 110.230469 L 238.195312 97.914062 C 238.195312 95.648438 236.355469 93.8125 234.089844 93.8125 C 231.824219 93.8125 229.984375 95.648438 229.984375 97.914062 L 229.984375 110.230469 L 213.5625 110.230469 L 213.5625 97.914062 C 213.5625 95.648438 211.726562 93.8125 209.457031 93.8125 C 207.191406 93.8125 205.355469 95.648438 205.355469 97.914062 L 205.355469 110.230469 L 188.933594 110.230469 L 188.933594 97.914062 C 188.933594 95.648438 187.09375 93.8125 184.828125 93.8125 C 182.5625 93.8125 180.722656 95.648438 180.722656 97.914062 L 180.722656 110.230469 L 156.09375 110.230469 L 156.09375 97.914062 C 156.09375 95.648438 154.253906 93.8125 151.988281 93.8125 C 149.71875 93.8125 147.882812 95.648438 147.882812 97.914062 L 147.882812 110.230469 L 131.460938 110.230469 L 131.460938 97.914062 C 131.460938 95.648438 129.625 93.8125 127.355469 93.8125 C 125.089844 93.8125 123.25 95.648438 123.25 97.914062 L 123.25 110.230469 L 106.832031 110.230469 L 106.832031 97.914062 C 106.832031 95.648438 104.992188 93.8125 102.726562 93.8125 C 100.460938 93.8125 98.621094 95.648438 98.621094 97.914062 L 98.621094 110.230469 L 82.199219 110.230469 L 82.199219 97.914062 C 82.199219 95.648438 80.363281 93.8125 78.09375 93.8125 C 75.828125 93.8125 73.992188 95.648438 73.992188 97.914062 L 73.992188 110.230469 L 55.585938 110.230469 L 63.675781 91.351562 C 64.546875 89.324219 65.945312 87.5625 67.726562 86.261719 L 165.984375 14.457031 C 167.4375 13.398438 169.378906 13.402344 170.832031 14.457031 L 269.085938 86.261719 C 270.871094 87.5625 272.269531 89.324219 273.140625 91.351562 L 281.230469 110.230469 Z M 266.929688 184.125 L 201.25 184.125 L 201.25 138.96875 C 201.25 136.699219 199.410156 134.863281 197.144531 134.863281 L 139.671875 134.863281 C 137.40625 134.863281 135.566406 136.699219 135.566406 138.96875 L 135.566406 184.125 L 69.886719 184.125 L 69.886719 118.441406 L 266.929688 118.441406 Z M 242.300781 241.59375 L 234.089844 241.59375 L 234.089844 192.332031 L 242.300781 192.332031 Z M 180.722656 200.542969 L 156.09375 200.542969 L 156.09375 192.332031 L 180.722656 192.332031 Z M 156.09375 233.382812 L 156.09375 225.175781 L 180.722656 225.175781 L 180.722656 233.382812 Z M 156.09375 208.753906 L 180.722656 208.753906 L 180.722656 216.964844 L 156.09375 216.964844 Z M 193.039062 184.125 L 143.777344 184.125 L 143.777344 143.070312 L 193.039062 143.070312 Z M 102.726562 241.59375 L 94.515625 241.59375 L 94.515625 192.332031 L 102.726562 192.332031 Z M 290.882812 116.59375 C 291.644531 115.445312 291.773438 113.988281 291.230469 112.71875 L 280.6875 88.117188 C 279.238281 84.738281 276.902344 81.804688 273.929688 79.632812 L 175.675781 7.828125 C 171.328125 4.652344 165.488281 4.652344 161.140625 7.828125 L 62.882812 79.632812 C 59.914062 81.804688 57.578125 84.738281 56.128906 88.117188 L 45.585938 112.71875 C 45.042969 113.988281 45.171875 115.445312 45.933594 116.59375 C 46.691406 117.746094 47.980469 118.441406 49.359375 118.441406 L 61.675781 118.441406 L 61.675781 188.226562 C 61.675781 190.496094 63.511719 192.332031 65.78125 192.332031 L 86.304688 192.332031 L 86.304688 245.699219 C 86.304688 247.96875 88.144531 249.804688 90.410156 249.804688 L 106.832031 249.804688 C 109.097656 249.804688 110.9375 247.96875 110.9375 245.699219 L 110.9375 192.332031 L 147.882812 192.332031 L 147.882812 245.699219 C 147.882812 247.96875 149.71875 249.804688 151.988281 249.804688 C 154.253906 249.804688 156.09375 247.96875 156.09375 245.699219 L 156.09375 241.59375 L 180.722656 241.59375 L 180.722656 245.699219 C 180.722656 247.96875 182.5625 249.804688 184.828125 249.804688 C 187.09375 249.804688 188.933594 247.96875 188.933594 245.699219 L 188.933594 192.332031 L 225.878906 192.332031 L 225.878906 245.699219 C 225.878906 247.96875 227.71875 249.804688 229.984375 249.804688 L 246.40625 249.804688 C 248.671875 249.804688 250.511719 247.96875 250.511719 245.699219 L 250.511719 192.332031 L 271.035156 192.332031 C 273.300781 192.332031 275.140625 190.496094 275.140625 188.226562 L 275.140625 118.441406 L 287.457031 118.441406 C 288.835938 118.441406 290.125 117.746094 290.882812 116.59375 " fill-opacity="1" fill-rule="nonzero"/></g><g clip-path="url(#e4145e7de2)"><path fill="#e0281e" d="M 124.316406 255.652344 C 131.796875 255.464844 138.03125 261.394531 138.21875 268.875 C 138.21875 269.015625 138.21875 269.160156 138.21875 269.277344 C 138.3125 276.78125 132.289062 282.921875 124.808594 282.992188 C 117.304688 283.085938 111.164062 277.085938 111.070312 269.582031 C 111.070312 269.488281 111.070312 269.371094 111.070312 269.277344 C 111.046875 261.886719 116.925781 255.820312 124.316406 255.652344 Z M 124.03125 247.703125 C 112.339844 248.03125 103.070312 257.605469 103.070312 269.277344 C 102.953125 281.203125 112.527344 290.96875 124.457031 291.0625 C 136.359375 291.179688 146.125 281.605469 146.242188 269.675781 C 146.242188 269.558594 146.242188 269.417969 146.242188 269.277344 C 146.242188 257.347656 136.574219 247.703125 124.644531 247.679688 C 124.457031 247.679688 124.21875 247.679688 124.03125 247.703125 " fill-opacity="1" fill-rule="nonzero"/></g><g clip-path="url(#4df0412ccc)"><path fill="#e0281e" d="M 214.566406 255.652344 C 222.046875 255.464844 228.28125 261.394531 228.472656 268.875 C 228.472656 269.015625 228.472656 269.160156 228.472656 269.277344 C 228.566406 276.78125 222.542969 282.921875 215.035156 282.992188 C 207.554688 283.085938 201.390625 277.085938 201.320312 269.582031 C 201.320312 269.488281 201.320312 269.371094 201.320312 269.277344 C 201.273438 261.886719 207.179688 255.820312 214.566406 255.652344 Z M 214.402344 247.558594 C 202.613281 247.84375 193.226562 257.511719 193.320312 269.277344 C 193.226562 281.203125 202.824219 290.945312 214.730469 291.015625 C 226.660156 291.109375 236.398438 281.511719 236.46875 269.582031 C 236.492188 269.488281 236.492188 269.371094 236.46875 269.277344 C 236.5625 257.347656 226.941406 247.632812 215.035156 247.558594 C 214.824219 247.558594 214.613281 247.558594 214.402344 247.558594 " fill-opacity="1" fill-rule="nonzero"/></g><g clip-path="url(#ca1dc87cc1)"><path fill="#e0281e" d="M 74.507812 118.535156 L 262.398438 118.535156 L 240.800781 204.882812 L 95.730469 204.882812 Z M 10.160156 73.433594 C 7.949219 73.457031 6.160156 75.269531 6.183594 77.480469 C 6.207031 79.667969 7.972656 81.433594 10.160156 81.457031 L 40.367188 81.457031 C 50.203125 81.457031 58.765625 88.160156 61.121094 97.714844 L 91.566406 221.46875 C 94.503906 233.398438 105.210938 241.796875 117.492188 241.796875 L 248.539062 241.796875 C 250.75 241.75 252.515625 239.9375 252.492188 237.726562 C 252.445312 235.5625 250.703125 233.820312 248.539062 233.773438 L 117.492188 233.773438 C 108.878906 233.773438 101.398438 227.914062 99.351562 219.5625 L 97.707031 212.90625 L 247.058594 212.90625 L 271.007812 117.171875 C 271.714844 114.300781 269.972656 111.40625 267.125 110.699219 C 266.703125 110.582031 266.257812 110.535156 265.832031 110.535156 L 72.53125 110.535156 L 68.90625 95.785156 C 65.660156 82.679688 53.898438 73.433594 40.367188 73.433594 L 10.160156 73.433594 " fill-opacity="1" fill-rule="nonzero"/></g><g clip-path="url(#a451b6c577)"><path fill="#e0281e" d="M 262.824219 107.945312 L 262.824219 95.628906 C 262.824219 93.363281 260.988281 91.523438 258.71875 91.523438 C 256.453125 91.523438 254.613281 93.363281 254.613281 95.628906 L 254.613281 107.945312 L 238.195312 107.945312 L 238.195312 95.628906 C 238.195312 93.363281 236.355469 91.523438 234.089844 91.523438 C 231.824219 91.523438 229.984375 93.363281 229.984375 95.628906 L 229.984375 107.945312 L 213.5625 107.945312 L 213.5625 95.628906 C 213.5625 93.363281 211.726562 91.523438 209.457031 91.523438 C 207.191406 91.523438 205.355469 93.363281 205.355469 95.628906 L 205.355469 107.945312 L 188.933594 107.945312 L 188.933594 95.628906 C 188.933594 93.363281 187.09375 91.523438 184.828125 91.523438 C 182.5625 91.523438 180.722656 93.363281 180.722656 95.628906 L 180.722656 107.945312 L 156.09375 107.945312 L 156.09375 95.628906 C 156.09375 93.363281 154.253906 91.523438 151.988281 91.523438 C 149.71875 91.523438 147.882812 93.363281 147.882812 95.628906 L 147.882812 107.945312 L 131.460938 107.945312 L 131.460938 95.628906 C 131.460938 93.363281 129.625 91.523438 127.355469 91.523438 C 125.089844 91.523438 123.25 93.363281 123.25 95.628906 L 123.25 107.945312 L 106.832031 107.945312 L 106.832031 95.628906 C 106.832031 93.363281 104.992188 91.523438 102.726562 91.523438 C 100.460938 91.523438 98.621094 93.363281 98.621094 95.628906 L 98.621094 107.945312 L 82.199219 107.945312 L 82.199219 95.628906 C 82.199219 93.363281 80.363281 91.523438 78.09375 91.523438 C 75.828125 91.523438 73.992188 93.363281 73.992188 95.628906 L 73.992188 107.945312 L 55.585938 107.945312 L 63.675781 89.066406 C 64.546875 87.039062 65.945312 85.277344 67.726562 83.972656 L 165.984375 12.171875 C 167.4375 11.113281 169.378906 11.113281 170.832031 12.171875 L 269.085938 83.972656 C 270.871094 85.277344 272.269531 87.039062 273.140625 89.066406 L 281.230469 107.945312 Z M 266.929688 181.835938 L 201.25 181.835938 L 201.25 136.679688 C 201.25 134.414062 199.410156 132.578125 197.144531 132.578125 L 139.671875 132.578125 C 137.40625 132.578125 135.566406 134.414062 135.566406 136.679688 L 135.566406 181.835938 L 69.886719 181.835938 L 69.886719 116.15625 L 266.929688 116.15625 Z M 242.300781 239.308594 L 234.089844 239.308594 L 234.089844 190.046875 L 242.300781 190.046875 Z M 180.722656 198.257812 L 156.09375 198.257812 L 156.09375 190.046875 L 180.722656 190.046875 Z M 156.09375 231.097656 L 156.09375 222.886719 L 180.722656 222.886719 L 180.722656 231.097656 Z M 156.09375 206.46875 L 180.722656 206.46875 L 180.722656 214.679688 L 156.09375 214.679688 Z M 193.039062 181.835938 L 143.777344 181.835938 L 143.777344 140.785156 L 193.039062 140.785156 Z M 102.726562 239.308594 L 94.515625 239.308594 L 94.515625 190.046875 L 102.726562 190.046875 Z M 290.882812 114.308594 C 291.644531 113.160156 291.773438 111.703125 291.230469 110.433594 L 280.6875 85.832031 C 279.238281 82.453125 276.902344 79.519531 273.929688 77.347656 L 175.675781 5.542969 C 171.328125 2.367188 165.488281 2.367188 161.140625 5.542969 L 62.882812 77.347656 C 59.914062 79.519531 57.578125 82.453125 56.128906 85.832031 L 45.585938 110.433594 C 45.042969 111.703125 45.171875 113.160156 45.933594 114.308594 C 46.691406 115.460938 47.980469 116.15625 49.359375 116.15625 L 61.675781 116.15625 L 61.675781 185.941406 C 61.675781 188.210938 63.511719 190.046875 65.78125 190.046875 L 86.304688 190.046875 L 86.304688 243.414062 C 86.304688 245.679688 88.144531 247.519531 90.410156 247.519531 L 106.832031 247.519531 C 109.097656 247.519531 110.9375 245.679688 110.9375 243.414062 L 110.9375 190.046875 L 147.882812 190.046875 L 147.882812 243.414062 C 147.882812 245.679688 149.71875 247.519531 151.988281 247.519531 C 154.253906 247.519531 156.09375 245.679688 156.09375 243.414062 L 156.09375 239.308594 L 180.722656 239.308594 L 180.722656 243.414062 C 180.722656 245.679688 182.5625 247.519531 184.828125 247.519531 C 187.09375 247.519531 188.933594 245.679688 188.933594 243.414062 L 188.933594 190.046875 L 225.878906 190.046875 L 225.878906 243.414062 C 225.878906 245.679688 227.71875 247.519531 229.984375 247.519531 L 246.40625 247.519531 C 248.671875 247.519531 250.511719 245.679688 250.511719 243.414062 L 250.511719 190.046875 L 271.035156 190.046875 C 273.300781 190.046875 275.140625 188.210938 275.140625 185.941406 L 275.140625 116.15625 L 287.457031 116.15625 C 288.835938 116.15625 290.125 115.460938 290.882812 114.308594 " fill-opacity="1" fill-rule="nonzero"/></g><g clip-path="url(#8564066256)"><path fill="#e0281e" d="M 124.316406 253.367188 C 131.796875 253.179688 138.03125 259.109375 138.21875 266.589844 C 138.21875 266.730469 138.21875 266.871094 138.21875 266.992188 C 138.3125 274.496094 132.289062 280.636719 124.808594 280.707031 C 117.304688 280.800781 111.164062 274.800781 111.070312 267.296875 C 111.070312 267.203125 111.070312 267.085938 111.070312 266.992188 C 111.046875 259.601562 116.925781 253.53125 124.316406 253.367188 Z M 124.03125 245.414062 C 112.339844 245.746094 103.070312 255.320312 103.070312 266.992188 C 102.953125 278.917969 112.527344 288.683594 124.457031 288.777344 C 136.359375 288.894531 146.125 279.320312 146.242188 267.390625 C 146.242188 267.273438 146.242188 267.132812 146.242188 266.992188 C 146.242188 255.0625 136.574219 245.414062 124.644531 245.390625 C 124.457031 245.390625 124.21875 245.390625 124.03125 245.414062 " fill-opacity="1" fill-rule="nonzero"/></g><g clip-path="url(#9f350830ff)"><path fill="#e0281e" d="M 214.566406 253.367188 C 222.046875 253.179688 228.28125 259.109375 228.472656 266.589844 C 228.472656 266.730469 228.472656 266.871094 228.472656 266.992188 C 228.566406 274.496094 222.542969 280.636719 215.035156 280.707031 C 207.554688 280.800781 201.390625 274.800781 201.320312 267.296875 C 201.320312 267.203125 201.320312 267.085938 201.320312 266.992188 C 201.273438 259.601562 207.179688 253.53125 214.566406 253.367188 Z M 214.402344 245.273438 C 202.613281 245.558594 193.226562 255.226562 193.320312 266.992188 C 193.226562 278.917969 202.824219 288.660156 214.730469 288.730469 C 226.660156 288.824219 236.398438 279.226562 236.46875 267.296875 C 236.492188 267.203125 236.492188 267.085938 236.46875 266.992188 C 236.5625 255.0625 226.941406 245.34375 215.035156 245.273438 C 214.824219 245.273438 214.613281 245.273438 214.402344 245.273438 " fill-opacity="1" fill-rule="nonzero"/></g><g clip-path="url(#81c149d322)"><path fill="#e0281e" d="M 74.507812 116.25 L 262.398438 116.25 L 240.800781 202.597656 L 95.730469 202.597656 Z M 10.160156 71.148438 C 7.949219 71.171875 6.160156 72.984375 6.183594 75.195312 C 6.207031 77.382812 7.972656 79.148438 10.160156 79.171875 L 40.367188 79.171875 C 50.203125 79.171875 58.765625 85.875 61.121094 95.429688 L 91.566406 219.183594 C 94.503906 231.109375 105.210938 239.511719 117.492188 239.511719 L 248.539062 239.511719 C 250.75 239.464844 252.515625 237.652344 252.492188 235.441406 C 252.445312 233.277344 250.703125 231.535156 248.539062 231.488281 L 117.492188 231.488281 C 108.878906 231.488281 101.398438 225.628906 99.351562 217.277344 L 97.707031 210.617188 L 247.058594 210.617188 L 271.007812 114.886719 C 271.714844 112.015625 269.972656 109.121094 267.125 108.414062 C 266.703125 108.296875 266.257812 108.25 265.832031 108.25 L 72.53125 108.25 L 68.90625 93.5 C 65.660156 80.394531 53.898438 71.148438 40.367188 71.148438 L 10.160156 71.148438 " fill-opacity="1" fill-rule="nonzero"/></g><g clip-path="url(#55f90f7a27)"><path fill="#e0281e" d="M 266.574219 105.660156 L 266.574219 93.34375 C 266.574219 91.078125 264.738281 89.238281 262.46875 89.238281 C 260.203125 89.238281 258.363281 91.078125 258.363281 93.34375 L 258.363281 105.660156 L 241.945312 105.660156 L 241.945312 93.34375 C 241.945312 91.078125 240.105469 89.238281 237.839844 89.238281 C 235.574219 89.238281 233.734375 91.078125 233.734375 93.34375 L 233.734375 105.660156 L 217.3125 105.660156 L 217.3125 93.34375 C 217.3125 91.078125 215.476562 89.238281 213.207031 89.238281 C 210.941406 89.238281 209.105469 91.078125 209.105469 93.34375 L 209.105469 105.660156 L 192.683594 105.660156 L 192.683594 93.34375 C 192.683594 91.078125 190.84375 89.238281 188.578125 89.238281 C 186.3125 89.238281 184.472656 91.078125 184.472656 93.34375 L 184.472656 105.660156 L 159.84375 105.660156 L 159.84375 93.34375 C 159.84375 91.078125 158.003906 89.238281 155.738281 89.238281 C 153.46875 89.238281 151.632812 91.078125 151.632812 93.34375 L 151.632812 105.660156 L 135.210938 105.660156 L 135.210938 93.34375 C 135.210938 91.078125 133.375 89.238281 131.105469 89.238281 C 128.839844 89.238281 127 91.078125 127 93.34375 L 127 105.660156 L 110.582031 105.660156 L 110.582031 93.34375 C 110.582031 91.078125 108.742188 89.238281 106.476562 89.238281 C 104.210938 89.238281 102.371094 91.078125 102.371094 93.34375 L 102.371094 105.660156 L 85.949219 105.660156 L 85.949219 93.34375 C 85.949219 91.078125 84.113281 89.238281 81.84375 89.238281 C 79.578125 89.238281 77.742188 91.078125 77.742188 93.34375 L 77.742188 105.660156 L 59.335938 105.660156 L 67.425781 86.78125 C 68.296875 84.753906 69.695312 82.992188 71.476562 81.6875 L 169.734375 9.886719 C 171.1875 8.828125 173.128906 8.828125 174.582031 9.886719 L 272.835938 81.6875 C 274.621094 82.992188 276.019531 84.753906 276.890625 86.78125 L 284.980469 105.660156 Z M 270.679688 179.550781 L 205 179.550781 L 205 134.394531 C 205 132.128906 203.160156 130.289062 200.894531 130.289062 L 143.421875 130.289062 C 141.15625 130.289062 139.316406 132.128906 139.316406 134.394531 L 139.316406 179.550781 L 73.636719 179.550781 L 73.636719 113.871094 L 270.679688 113.871094 Z M 246.050781 237.023438 L 237.839844 237.023438 L 237.839844 187.761719 L 246.050781 187.761719 Z M 184.472656 195.972656 L 159.84375 195.972656 L 159.84375 187.761719 L 184.472656 187.761719 Z M 159.84375 228.8125 L 159.84375 220.601562 L 184.472656 220.601562 L 184.472656 228.8125 Z M 159.84375 204.183594 L 184.472656 204.183594 L 184.472656 212.394531 L 159.84375 212.394531 Z M 196.789062 179.550781 L 147.527344 179.550781 L 147.527344 138.5 L 196.789062 138.5 Z M 106.476562 237.023438 L 98.265625 237.023438 L 98.265625 187.761719 L 106.476562 187.761719 Z M 294.632812 112.023438 C 295.394531 110.875 295.523438 109.417969 294.980469 108.148438 L 284.4375 83.546875 C 282.988281 80.167969 280.652344 77.234375 277.679688 75.058594 L 179.425781 3.257812 C 175.078125 0.0820312 169.238281 0.0820312 164.890625 3.257812 L 66.632812 75.058594 C 63.664062 77.234375 61.328125 80.167969 59.878906 83.546875 L 49.335938 108.148438 C 48.792969 109.417969 48.921875 110.875 49.683594 112.023438 C 50.441406 113.175781 51.730469 113.871094 53.109375 113.871094 L 65.425781 113.871094 L 65.425781 183.65625 C 65.425781 185.925781 67.261719 187.761719 69.53125 187.761719 L 90.054688 187.761719 L 90.054688 241.128906 C 90.054688 243.394531 91.894531 245.234375 94.160156 245.234375 L 110.582031 245.234375 C 112.847656 245.234375 114.6875 243.394531 114.6875 241.128906 L 114.6875 187.761719 L 151.632812 187.761719 L 151.632812 241.128906 C 151.632812 243.394531 153.46875 245.234375 155.738281 245.234375 C 158.003906 245.234375 159.84375 243.394531 159.84375 241.128906 L 159.84375 237.023438 L 184.472656 237.023438 L 184.472656 241.128906 C 184.472656 243.394531 186.3125 245.234375 188.578125 245.234375 C 190.84375 245.234375 192.683594 243.394531 192.683594 241.128906 L 192.683594 187.761719 L 229.628906 187.761719 L 229.628906 241.128906 C 229.628906 243.394531 231.46875 245.234375 233.734375 245.234375 L 250.15625 245.234375 C 252.421875 245.234375 254.261719 243.394531 254.261719 241.128906 L 254.261719 187.761719 L 274.785156 187.761719 C 277.050781 187.761719 278.890625 185.925781 278.890625 183.65625 L 278.890625 113.871094 L 291.207031 113.871094 C 292.585938 113.871094 293.875 113.175781 294.632812 112.023438 " fill-opacity="1" fill-rule="nonzero"/></g><g clip-path="url(#6dfaf65dc6)"><path fill="#e0281e" d="M 128.066406 251.082031 C 135.546875 250.894531 141.78125 256.824219 141.96875 264.304688 C 141.96875 264.445312 141.96875 264.585938 141.96875 264.703125 C 142.0625 272.210938 136.039062 278.351562 128.558594 278.421875 C 121.054688 278.515625 114.914062 272.515625 114.820312 265.011719 C 114.820312 264.917969 114.820312 264.800781 114.820312 264.703125 C 114.796875 257.316406 120.675781 251.246094 128.066406 251.082031 Z M 127.78125 243.128906 C 116.089844 243.460938 106.820312 253.035156 106.820312 264.703125 C 106.703125 276.632812 116.277344 286.398438 128.207031 286.492188 C 140.109375 286.609375 149.875 277.035156 149.992188 265.105469 C 149.992188 264.988281 149.992188 264.847656 149.992188 264.703125 C 149.992188 252.777344 140.324219 243.128906 128.394531 243.105469 C 128.207031 243.105469 127.96875 243.105469 127.78125 243.128906 " fill-opacity="1" fill-rule="nonzero"/></g><g clip-path="url(#1ba06a4d74)"><path fill="#e0281e" d="M 218.316406 251.082031 C 225.796875 250.894531 232.03125 256.824219 232.222656 264.304688 C 232.222656 264.445312 232.222656 264.585938 232.222656 264.703125 C 232.316406 272.210938 226.292969 278.351562 218.785156 278.421875 C 211.304688 278.515625 205.140625 272.515625 205.070312 265.011719 C 205.070312 264.917969 205.070312 264.800781 205.070312 264.703125 C 205.023438 257.316406 210.929688 251.246094 218.316406 251.082031 Z M 218.152344 242.988281 C 206.363281 243.269531 196.976562 252.941406 197.070312 264.703125 C 196.976562 276.632812 206.574219 286.375 218.480469 286.445312 C 230.410156 286.539062 240.148438 276.9375 240.21875 265.011719 C 240.242188 264.917969 240.242188 264.800781 240.21875 264.703125 C 240.3125 252.777344 230.691406 243.058594 218.785156 242.988281 C 218.574219 242.988281 218.363281 242.988281 218.152344 242.988281 " fill-opacity="1" fill-rule="nonzero"/></g><g clip-path="url(#a1cadb65d8)"><path fill="#e0281e" d="M 78.257812 113.964844 L 266.148438 113.964844 L 244.550781 200.308594 L 99.480469 200.308594 Z M 13.910156 68.863281 C 11.699219 68.886719 9.910156 70.699219 9.933594 72.910156 C 9.957031 75.097656 11.722656 76.863281 13.910156 76.886719 L 44.117188 76.886719 C 53.953125 76.886719 62.515625 83.589844 64.871094 93.140625 L 95.316406 216.898438 C 98.253906 228.824219 108.960938 237.226562 121.242188 237.226562 L 252.289062 237.226562 C 254.5 237.179688 256.265625 235.367188 256.242188 233.15625 C 256.195312 230.988281 254.453125 229.25 252.289062 229.203125 L 121.242188 229.203125 C 112.628906 229.203125 105.148438 223.34375 103.101562 214.992188 L 101.457031 208.332031 L 250.808594 208.332031 L 274.757812 112.601562 C 275.464844 109.730469 273.722656 106.835938 270.875 106.128906 C 270.453125 106.011719 270.007812 105.964844 269.582031 105.964844 L 76.28125 105.964844 L 72.65625 91.214844 C 69.410156 78.109375 57.648438 68.863281 44.117188 68.863281 L 13.910156 68.863281 " fill-opacity="1" fill-rule="nonzero"/></g><g clip-path="url(#d6ef790823)"><path fill="#e0281e" d="M 268.824219 110.230469 L 268.824219 97.914062 C 268.824219 95.648438 266.988281 93.8125 264.71875 93.8125 C 262.453125 93.8125 260.613281 95.648438 260.613281 97.914062 L 260.613281 110.230469 L 244.195312 110.230469 L 244.195312 97.914062 C 244.195312 95.648438 242.355469 93.8125 240.089844 93.8125 C 237.824219 93.8125 235.984375 95.648438 235.984375 97.914062 L 235.984375 110.230469 L 219.5625 110.230469 L 219.5625 97.914062 C 219.5625 95.648438 217.726562 93.8125 215.457031 93.8125 C 213.191406 93.8125 211.355469 95.648438 211.355469 97.914062 L 211.355469 110.230469 L 194.933594 110.230469 L 194.933594 97.914062 C 194.933594 95.648438 193.09375 93.8125 190.828125 93.8125 C 188.5625 93.8125 186.722656 95.648438 186.722656 97.914062 L 186.722656 110.230469 L 162.09375 110.230469 L 162.09375 97.914062 C 162.09375 95.648438 160.253906 93.8125 157.988281 93.8125 C 155.71875 93.8125 153.882812 95.648438 153.882812 97.914062 L 153.882812 110.230469 L 137.460938 110.230469 L 137.460938 97.914062 C 137.460938 95.648438 135.625 93.8125 133.355469 93.8125 C 131.089844 93.8125 129.25 95.648438 129.25 97.914062 L 129.25 110.230469 L 112.832031 110.230469 L 112.832031 97.914062 C 112.832031 95.648438 110.992188 93.8125 108.726562 93.8125 C 106.460938 93.8125 104.621094 95.648438 104.621094 97.914062 L 104.621094 110.230469 L 88.199219 110.230469 L 88.199219 97.914062 C 88.199219 95.648438 86.363281 93.8125 84.09375 93.8125 C 81.828125 93.8125 79.992188 95.648438 79.992188 97.914062 L 79.992188 110.230469 L 61.585938 110.230469 L 69.675781 91.351562 C 70.546875 89.324219 71.945312 87.5625 73.726562 86.261719 L 171.984375 14.457031 C 173.4375 13.398438 175.378906 13.402344 176.832031 14.457031 L 275.085938 86.261719 C 276.871094 87.5625 278.269531 89.324219 279.140625 91.351562 L 287.230469 110.230469 Z M 272.929688 184.125 L 207.25 184.125 L 207.25 138.96875 C 207.25 136.699219 205.410156 134.863281 203.144531 134.863281 L 145.671875 134.863281 C 143.40625 134.863281 141.566406 136.699219 141.566406 138.96875 L 141.566406 184.125 L 75.886719 184.125 L 75.886719 118.441406 L 272.929688 118.441406 Z M 248.300781 241.59375 L 240.089844 241.59375 L 240.089844 192.332031 L 248.300781 192.332031 Z M 186.722656 200.542969 L 162.09375 200.542969 L 162.09375 192.332031 L 186.722656 192.332031 Z M 162.09375 233.382812 L 162.09375 225.175781 L 186.722656 225.175781 L 186.722656 233.382812 Z M 162.09375 208.753906 L 186.722656 208.753906 L 186.722656 216.964844 L 162.09375 216.964844 Z M 199.039062 184.125 L 149.777344 184.125 L 149.777344 143.070312 L 199.039062 143.070312 Z M 108.726562 241.59375 L 100.515625 241.59375 L 100.515625 192.332031 L 108.726562 192.332031 Z M 296.882812 116.59375 C 297.644531 115.445312 297.773438 113.988281 297.230469 112.71875 L 286.6875 88.117188 C 285.238281 84.738281 282.902344 81.804688 279.929688 79.632812 L 181.675781 7.828125 C 177.328125 4.652344 171.488281 4.652344 167.140625 7.828125 L 68.882812 79.632812 C 65.914062 81.804688 63.578125 84.738281 62.128906 88.117188 L 51.585938 112.71875 C 51.042969 113.988281 51.171875 115.445312 51.933594 116.59375 C 52.691406 117.746094 53.980469 118.441406 55.359375 118.441406 L 67.675781 118.441406 L 67.675781 188.226562 C 67.675781 190.496094 69.511719 192.332031 71.78125 192.332031 L 92.304688 192.332031 L 92.304688 245.699219 C 92.304688 247.96875 94.144531 249.804688 96.410156 249.804688 L 112.832031 249.804688 C 115.097656 249.804688 116.9375 247.96875 116.9375 245.699219 L 116.9375 192.332031 L 153.882812 192.332031 L 153.882812 245.699219 C 153.882812 247.96875 155.71875 249.804688 157.988281 249.804688 C 160.253906 249.804688 162.09375 247.96875 162.09375 245.699219 L 162.09375 241.59375 L 186.722656 241.59375 L 186.722656 245.699219 C 186.722656 247.96875 188.5625 249.804688 190.828125 249.804688 C 193.09375 249.804688 194.933594 247.96875 194.933594 245.699219 L 194.933594 192.332031 L 231.878906 192.332031 L 231.878906 245.699219 C 231.878906 247.96875 233.71875 249.804688 235.984375 249.804688 L 252.40625 249.804688 C 254.671875 249.804688 256.511719 247.96875 256.511719 245.699219 L 256.511719 192.332031 L 277.035156 192.332031 C 279.300781 192.332031 281.140625 190.496094 281.140625 188.226562 L 281.140625 118.441406 L 293.457031 118.441406 C 294.835938 118.441406 296.125 117.746094 296.882812 116.59375 " fill-opacity="1" fill-rule="nonzero"/></g><g clip-path="url(#a76aa6e504)"><path fill="#e0281e" d="M 130.316406 255.652344 C 137.796875 255.464844 144.03125 261.394531 144.21875 268.875 C 144.21875 269.015625 144.21875 269.160156 144.21875 269.277344 C 144.3125 276.78125 138.289062 282.921875 130.808594 282.992188 C 123.304688 283.085938 117.164062 277.085938 117.070312 269.582031 C 117.070312 269.488281 117.070312 269.371094 117.070312 269.277344 C 117.046875 261.886719 122.925781 255.820312 130.316406 255.652344 Z M 130.03125 247.703125 C 118.339844 248.03125 109.070312 257.605469 109.070312 269.277344 C 108.953125 281.203125 118.527344 290.96875 130.457031 291.0625 C 142.359375 291.179688 152.125 281.605469 152.242188 269.675781 C 152.242188 269.558594 152.242188 269.417969 152.242188 269.277344 C 152.242188 257.347656 142.574219 247.703125 130.644531 247.679688 C 130.457031 247.679688 130.21875 247.679688 130.03125 247.703125 " fill-opacity="1" fill-rule="nonzero"/></g><g clip-path="url(#134053df1e)"><path fill="#e0281e" d="M 220.566406 255.652344 C 228.046875 255.464844 234.28125 261.394531 234.472656 268.875 C 234.472656 269.015625 234.472656 269.160156 234.472656 269.277344 C 234.566406 276.78125 228.542969 282.921875 221.035156 282.992188 C 213.554688 283.085938 207.390625 277.085938 207.320312 269.582031 C 207.320312 269.488281 207.320312 269.371094 207.320312 269.277344 C 207.273438 261.886719 213.179688 255.820312 220.566406 255.652344 Z M 220.402344 247.558594 C 208.613281 247.84375 199.226562 257.511719 199.320312 269.277344 C 199.226562 281.203125 208.824219 290.945312 220.730469 291.015625 C 232.660156 291.109375 242.398438 281.511719 242.46875 269.582031 C 242.492188 269.488281 242.492188 269.371094 242.46875 269.277344 C 242.5625 257.347656 232.941406 247.632812 221.035156 247.558594 C 220.824219 247.558594 220.613281 247.558594 220.402344 247.558594 " fill-opacity="1" fill-rule="nonzero"/></g><g clip-path="url(#091a7b0962)"><path fill="#e0281e" d="M 80.507812 118.535156 L 268.398438 118.535156 L 246.800781 204.882812 L 101.730469 204.882812 Z M 16.160156 73.433594 C 13.949219 73.457031 12.160156 75.269531 12.183594 77.480469 C 12.207031 79.667969 13.972656 81.433594 16.160156 81.457031 L 46.367188 81.457031 C 56.203125 81.457031 64.765625 88.160156 67.121094 97.714844 L 97.566406 221.46875 C 100.503906 233.398438 111.210938 241.796875 123.492188 241.796875 L 254.539062 241.796875 C 256.75 241.75 258.515625 239.9375 258.492188 237.726562 C 258.445312 235.5625 256.703125 233.820312 254.539062 233.773438 L 123.492188 233.773438 C 114.878906 233.773438 107.398438 227.914062 105.351562 219.5625 L 103.707031 212.90625 L 253.058594 212.90625 L 277.007812 117.171875 C 277.714844 114.300781 275.972656 111.40625 273.125 110.699219 C 272.703125 110.582031 272.257812 110.535156 271.832031 110.535156 L 78.53125 110.535156 L 74.90625 95.785156 C 71.660156 82.679688 59.898438 73.433594 46.367188 73.433594 L 16.160156 73.433594 " fill-opacity="1" fill-rule="nonzero"/></g></g></g><g clip-path="url(#d243796e5a)"><path fill="#e8e8e8" d="M 176.09375 398.210938 L 206.824219 398.210938 C 212.460938 398.015625 212.46875 389.898438 206.824219 389.695312 L 176.09375 389.695312 C 175.816406 389.695312 175.539062 389.71875 175.265625 389.773438 C 174.992188 389.828125 174.722656 389.910156 174.464844 390.015625 C 174.207031 390.125 173.960938 390.253906 173.730469 390.410156 C 173.496094 390.566406 173.28125 390.742188 173.085938 390.941406 C 172.886719 391.136719 172.710938 391.351562 172.554688 391.585938 C 172.398438 391.816406 172.269531 392.0625 172.160156 392.320312 C 172.054688 392.582031 171.972656 392.847656 171.917969 393.121094 C 171.863281 393.394531 171.835938 393.671875 171.835938 393.953125 C 171.835938 394.230469 171.863281 394.507812 171.917969 394.78125 C 171.972656 395.058594 172.054688 395.324219 172.160156 395.582031 C 172.269531 395.839844 172.398438 396.085938 172.554688 396.316406 C 172.710938 396.550781 172.886719 396.765625 173.085938 396.960938 C 173.28125 397.160156 173.496094 397.335938 173.730469 397.492188 C 173.960938 397.648438 174.207031 397.777344 174.464844 397.886719 C 174.722656 397.992188 174.992188 398.074219 175.265625 398.128906 C 175.539062 398.183594 175.816406 398.210938 176.09375 398.210938 Z M 176.09375 398.210938 " fill-opacity="1" fill-rule="nonzero"/></g><g clip-path="url(#a1c374e23c)"><path fill="#e8e8e8" d="M 206.824219 403.84375 L 176.09375 403.84375 C 170.460938 404.042969 170.453125 412.15625 176.09375 412.363281 L 206.824219 412.363281 C 207.105469 412.363281 207.382812 412.335938 207.65625 412.28125 C 207.929688 412.226562 208.195312 412.144531 208.453125 412.039062 C 208.714844 411.929688 208.957031 411.800781 209.191406 411.644531 C 209.421875 411.488281 209.636719 411.3125 209.835938 411.113281 C 210.035156 410.917969 210.210938 410.703125 210.367188 410.46875 C 210.519531 410.238281 210.652344 409.992188 210.757812 409.734375 C 210.867188 409.476562 210.945312 409.207031 211 408.933594 C 211.054688 408.660156 211.082031 408.382812 211.082031 408.105469 C 211.082031 407.824219 211.054688 407.546875 211 407.273438 C 210.945312 407 210.867188 406.734375 210.757812 406.472656 C 210.652344 406.214844 210.519531 405.96875 210.367188 405.738281 C 210.210938 405.503906 210.035156 405.289062 209.835938 405.09375 C 209.636719 404.894531 209.421875 404.71875 209.191406 404.5625 C 208.957031 404.40625 208.714844 404.277344 208.453125 404.167969 C 208.195312 404.0625 207.929688 403.980469 207.65625 403.925781 C 207.382812 403.871094 207.105469 403.84375 206.824219 403.84375 Z M 206.824219 403.84375 " fill-opacity="1" fill-rule="nonzero"/></g><g transform="matrix(1, 0, 0, 1, 316, 276)"><g clip-path="url(#b0526ed27d)"><g fill="#e0281e" fill-opacity="1"><g transform="translate(1.022146, 101.844442)"><g><path d="M 0.90625 -74.71875 L 0.90625 -93.40625 L 66.578125 -93.40625 L 66.578125 -74.71875 L 44.375 -74.71875 L 44.375 0 L 23.09375 0 L 23.09375 -74.71875 Z M 0.90625 -74.71875 "/></g></g></g><g fill="#e0281e" fill-opacity="1"><g transform="translate(68.496056, 101.844442)"><g><path d="M 28.078125 -93.40625 L 28.078125 0 L 6.796875 0 L 6.796875 -93.40625 Z M 28.078125 -93.40625 "/></g></g></g><g fill="#e0281e" fill-opacity="1"><g transform="translate(103.365124, 101.844442)"><g><path d="M 28.078125 -57.96875 L 28.078125 0 L 6.796875 0 L 6.796875 -93.40625 L 28.078125 -93.40625 L 65.21875 -35.4375 L 65.4375 -35.4375 L 65.4375 -93.40625 L 86.71875 -93.40625 L 86.71875 0 L 65.4375 0 L 28.3125 -57.96875 Z M 28.078125 -57.96875 "/></g></g></g><g fill="#e0281e" fill-opacity="1"><g transform="translate(196.877614, 101.844442)"><g><path d="M 6.796875 -93.40625 L 33.859375 -93.40625 C 46.835938 -93.40625 57.929688 -88.96875 67.140625 -80.09375 C 76.347656 -71.226562 80.953125 -60.117188 80.953125 -46.765625 C 80.953125 -33.328125 76.363281 -22.171875 67.1875 -13.296875 C 58.019531 -4.429688 46.910156 0 33.859375 0 L 6.796875 0 Z M 28.078125 -19.015625 L 31.359375 -19.015625 C 39.128906 -19.015625 45.488281 -21.640625 50.4375 -26.890625 C 55.382812 -32.140625 57.894531 -38.722656 57.96875 -46.640625 C 57.96875 -54.566406 55.492188 -61.171875 50.546875 -66.453125 C 45.609375 -71.742188 39.210938 -74.390625 31.359375 -74.390625 L 28.078125 -74.390625 Z M 28.078125 -19.015625 "/></g></g></g><g fill="#e0281e" fill-opacity="1"><g transform="translate(280.42752, 101.844442)"><g><path d="M 54.234375 -93.40625 L 91.9375 0 L 69.0625 0 L 62.15625 -18.6875 L 26.609375 -18.6875 L 19.703125 0 L -3.171875 0 L 34.53125 -93.40625 Z M 54.90625 -37.359375 L 44.5 -64.53125 L 44.265625 -64.53125 L 33.859375 -37.359375 Z M 54.90625 -37.359375 "/></g></g></g></g></g><g transform="matrix(1, 0, 0, 1, 298, 399)"><g clip-path="url(#a5a1ee8f9e)"><g fill="#e0281e" fill-opacity="1"><g transform="translate(6.179832, 122.887112)"><g><path d="M 57.4375 -113.109375 L 57.4375 -31.9375 C 57.4375 -20.882812 54.394531 -12.453125 48.3125 -6.640625 C 42.238281 -0.835938 33.535156 2.0625 22.203125 2.0625 C 19.191406 2.0625 16.222656 1.691406 13.296875 0.953125 C 10.367188 0.222656 7.898438 -0.664062 5.890625 -1.71875 C 3.878906 -2.769531 2.070312 -3.84375 0.46875 -4.9375 C -1.125 -6.03125 -2.285156 -6.941406 -3.015625 -7.671875 L -4.25 -8.78125 L 3.96875 -30.296875 C 9.363281 -25.179688 14.253906 -22.625 18.640625 -22.625 C 22.578125 -22.625 25.734375 -23.925781 28.109375 -26.53125 C 30.484375 -29.132812 31.671875 -33.128906 31.671875 -38.515625 L 31.671875 -113.109375 Z M 57.4375 -113.109375 "/></g></g></g><g fill="#e0281e" fill-opacity="1"><g transform="translate(70.472886, 122.887112)"><g><path d="M 95.140625 -113.109375 L 95.140625 -40.171875 C 95.140625 -26.273438 91.390625 -15.757812 83.890625 -8.625 C 76.398438 -1.5 65.4375 2.0625 51 2.0625 C 36.5625 2.0625 25.59375 -1.5 18.09375 -8.625 C 10.601562 -15.757812 6.859375 -26.273438 6.859375 -40.171875 L 6.859375 -113.109375 L 32.625 -113.109375 L 32.625 -47.703125 C 32.625 -38.566406 34.0625 -32.21875 36.9375 -28.65625 C 39.820312 -25.09375 44.507812 -23.3125 51 -23.3125 C 57.488281 -23.3125 62.171875 -25.09375 65.046875 -28.65625 C 67.929688 -32.21875 69.375 -38.566406 69.375 -47.703125 L 69.375 -113.109375 Z M 95.140625 -113.109375 "/></g></g></g><g fill="#e0281e" fill-opacity="1"><g transform="translate(172.464428, 122.887112)"><g><path d="M 65.671875 -113.109375 L 111.3125 0 L 83.625 0 L 75.265625 -22.625 L 32.21875 -22.625 L 23.859375 0 L -3.84375 0 L 41.8125 -113.109375 Z M 66.484375 -45.234375 L 53.875 -78.140625 L 53.609375 -78.140625 L 40.984375 -45.234375 Z M 66.484375 -45.234375 "/></g></g></g><g fill="#e0281e" fill-opacity="1"><g transform="translate(279.939394, 122.887112)"><g><path d="M 34 -70.1875 L 34 0 L 8.21875 0 L 8.21875 -113.109375 L 34 -113.109375 L 78.96875 -42.90625 L 79.234375 -42.90625 L 79.234375 -113.109375 L 105.015625 -113.109375 L 105.015625 0 L 79.234375 0 L 34.28125 -70.1875 Z M 34 -70.1875 "/></g></g></g></g></g></svg>